<svg xmlns="http://www.w3.org/2000/svg" viewBox="0 0 24 24"><path d="M15 19.5c.3 0 .5-.2.5-.5l.5-9.5c0-.2-.2-.5-.5-.5-.2 0-.5.2-.5.5l-.5 9.5c0 .2.2.5.5.5zM12 19.5c.3 0 .5-.2.5-.5V9.5c0-.3-.2-.5-.5-.5s-.5.2-.5.5V19c0 .3.2.5.5.5zM9 19.5c.3 0 .5-.3.5-.5L9 9.5c0-.3-.3-.5-.5-.5-.3 0-.5.3-.5.5l.5 9.5c0 .3.2.5.5.5z"/><path d="M19 4.5h-2.7l-.5-1.1c-.3-.6-.8-.9-1.5-.9H9.7c-.6 0-1.2.3-1.5.9l-.5 1.1H5C3.6 4.5 2.5 5.6 2.5 7c0 .6.4 1 1 1h1l.9 11.6c.1 1 1 1.9 2 1.9h9.2c1 0 1.9-.8 2-1.9L19.5 8h1c.6 0 1-.4 1-1 0-1.4-1.1-2.5-2.5-2.5zm-9.9-.6c.1-.2.3-.4.6-.4h4.6c.2 0 .5.1.6.4l.3.6H8.8l.3-.6zm8.5 15.7c0 .5-.5.9-1 .9H7.4c-.5 0-1-.4-1-.9L5.5 8h12.9l-.8 11.6zM19 7H3.5c0-.8.7-1.5 1.5-1.5h14c.8 0 1.5.7 1.5 1.5H19z"/></svg>